<svg xmlns="http://www.w3.org/2000/svg" viewBox="0 0 100 104" role="img" aria-label="Aster Sports">
  <defs>
    <linearGradient id="ag" gradientUnits="userSpaceOnUse" x1="0" y1="96" x2="0" y2="4">
      <stop offset="0" stop-color="#E0631C"/>
      <stop offset="0.5" stop-color="#E8902A"/>
      <stop offset="0.85" stop-color="#F6CC55"/>
      <stop offset="1" stop-color="#FBD56B"/>
    </linearGradient>
  </defs>
  <!-- constellation-arrow: peak star + outer arms + inner web converging to a base node -->
  <g stroke="url(#ag)" stroke-width="3" stroke-linecap="round" stroke-linejoin="round" fill="none">
    <path d="M50,12 L16,62"/>
    <path d="M50,12 L84,62"/>
    <path d="M50,12 L50,92"/>
    <path d="M50,52 L34,66"/>
    <path d="M50,52 L66,66"/>
    <path d="M34,66 L50,92"/>
    <path d="M66,66 L50,92"/>
    <path d="M16,62 L34,66"/>
    <path d="M84,62 L66,66"/>
  </g>
  <g fill="url(#ag)">
    <circle cx="50" cy="52" r="4"/>
    <circle cx="34" cy="66" r="3.4"/>
    <circle cx="66" cy="66" r="3.4"/>
    <circle cx="50" cy="92" r="4"/>
    <path d="M50,1 L53,9 L61,12 L53,15 L50,23 L47,15 L39,12 L47,9 Z"/>
    <path d="M16,55 L18,60 L23,62 L18,64 L16,69 L14,64 L9,62 L14,60 Z"/>
    <path d="M84,55 L86,60 L91,62 L86,64 L84,69 L82,64 L77,62 L82,60 Z"/>
  </g>
</svg>
